<?xml version="1.0" standalone="no"?>
<!DOCTYPE svg PUBLIC "-//W3C//DTD SVG 20010904//EN" "http://www.w3.org/TR/2001/REC-SVG-20010904/DTD/svg10.dtd">
<!-- Created using Krita: https://krita.org -->
<svg xmlns="http://www.w3.org/2000/svg" 
    xmlns:xlink="http://www.w3.org/1999/xlink"
    xmlns:krita="http://krita.org/namespaces/svg/krita"
    xmlns:sodipodi="http://sodipodi.sourceforge.net/DTD/sodipodi-0.dtd"
    width="259.2pt"
    height="259.2pt"
    viewBox="0 0 259.2 259.2">
<defs/>
<path id="shape0" transform="matrix(0.769547325102882 0 0 0.906250000000003 8.31599817056441 39.465218426037)" fill="#000000" d="M30.8099 12.7181C35.7051 21.1968 38.1527 25.4362 38.1527 25.4362C38.1569 25.4779 38.154 25.5081 38.1441 25.5268C37.9336 25.9222 37.7588 26.2658 37.5121 26.6397C35.7617 29.2919 34.2337 31.547 32.4398 34.1701C31.8169 35.0809 31.1507 35.7752 30.6077 36.7358C27.6797 41.9155 25.1929 46.3733 22.5331 51.6956C21.4537 53.8553 20.5949 55.7637 19.9373 58.0869C18.3547 63.6777 16.9825 68.4998 16.1486 74.2501C14.9995 82.1744 14.7002 89.0554 14.2869 97.0518C14.0482 101.67 13.9345 108.276 13.9459 116.869L0 92.7137C0.0132748 84.1599 0.144419 77.5846 0.393432 72.9877C0.825162 65.0177 1.17796 58.1653 2.29955 50.2629C3.1262 44.4385 4.39604 39.5302 5.94741 33.8557C6.58495 31.5237 7.47961 29.6264 8.53593 27.4518C11.1609 22.0481 13.6446 17.533 16.4555 12.2236C16.9977 11.1995 17.5158 10.3505 18.115 9.35867C19.7947 6.57811 21.336 4.25571 22.9665 1.44596C23.2159 1.01613 23.3132 0.590167 23.4757 0.120565C23.485 0.0939131 23.4821 0.0537248 23.4671 0L23.4671 0C23.4671 -2.27187e-07 25.9147 4.23937 30.8099 12.7181Z" sodipodi:nodetypes="ccccccccccccccccccccccc"/><path id="shape1" transform="matrix(0.769547325102882 0 0 0.906250000000003 -0.345342728133256 96.826615372703)" fill="#000000" d="M0.114218 10.0967C0.0879759 10.0819 0.0701248 10.0683 0.0606652 10.0557C0.0384126 10.0261 0.0211007 9.99751 0.0125387 9.9615C0.00330618 9.92266 -0.0096392 9.88152 0.0111625 9.84746C0.0845906 9.7272 0.161398 9.62879 0.27029 9.53937C0.899968 9.02229 1.45995 8.60391 2.11521 8.11967C2.48597 7.84569 2.81283 7.62274 3.2008 7.37372C3.60716 7.1129 3.94009 6.85447 4.38366 6.66368C6.24728 5.8621 7.82807 5.1021 9.77862 4.54448C13.2901 3.54062 16.3292 2.69298 19.9497 2.21367C27.928 1.15749 34.8312 0.822354 42.8522 0.166089C44.2895 0.0484947 45.5272 -0.0149165 46.9692 0.00299653C52.6704 0.0738214 57.5653 0.0416628 63.2544 0.41954C65.7368 0.58442 67.8409 1.02242 70.272 1.55078C74.7285 2.51933 78.5 3.56011 82.9177 4.693C84.9738 5.22027 86.7455 5.64724 88.7672 6.29382C92.2824 7.41801 95.274 8.45293 98.7292 9.74971C99.4653 10.026 100.483 10.5021 101.781 11.1781L116.246 36.2316C114.919 35.5092 113.879 34.9947 113.127 34.688C109.584 33.2426 106.514 32.0831 102.911 30.792C100.822 30.0432 99.0126 29.4457 96.8716 28.8618C92.4643 27.66 88.6765 26.652 84.2102 25.6925C81.7985 25.1744 79.7036 24.7835 77.2408 24.6446C71.5811 24.3254 66.7153 24.4099 61.0468 24.3861C59.6066 24.3801 58.3713 24.4449 56.9357 24.5594C48.9026 25.2002 41.9745 25.4046 33.9969 26.544C30.4233 27.0544 27.4584 28.0786 24.0463 29.2569C22.1452 29.9134 20.6687 30.8531 18.8762 31.7655C18.4458 31.9846 18.1006 32.2173 17.7 32.4871C17.3163 32.7455 16.9905 32.9741 16.6375 33.2731C16.0065 33.8074 15.4741 34.2777 14.892 34.8649C14.7833 34.9745 14.7389 35.1086 14.6775 35.2502C14.6621 35.2858 14.6669 35.3234 14.6769 35.3608C14.6888 35.4055 14.7113 35.4402 14.7382 35.4779C14.7494 35.4935 14.7699 35.5119 14.7998 35.5329L14.7998 35.5329Z" sodipodi:nodetypes="cccccccccccccccccccccccccccccccccccccc"/><path id="shape2" transform="matrix(0.769547325102882 0 0 0.906250000000003 37.5421661215615 37.681718426037)" fill="#000000" d="M44.6235 12.7181C49.5187 21.1968 51.9663 25.4362 51.9663 25.4362C51.917 25.4246 51.8789 25.4196 51.8521 25.4212C51.7918 25.4249 51.7251 25.4104 51.6825 25.4532C51.1162 26.0213 50.6579 26.5355 50.1349 27.1437C49.7296 27.6151 49.4056 28.0392 49.0317 28.5359C48.1968 29.6449 47.4851 30.5987 46.6819 31.7309C45.7185 33.0889 44.9307 34.2795 43.985 35.6499C43.2626 36.6966 42.5841 37.5549 41.9157 38.6369C38.9883 43.3754 36.3128 47.3481 33.7144 52.2746C30.829 57.7452 28.7327 62.6277 26.2697 68.301C25.4287 70.2383 24.8897 71.9759 24.283 73.9989C23.0923 77.9688 22.0719 81.3773 21.1367 85.4151C20.1296 89.7634 19.5787 93.5566 18.7379 97.9401C18.3088 100.177 17.7882 102.071 17.5084 104.331C16.4796 112.646 15.6166 119.781 15.0016 128.136C14.5611 134.12 14.5809 139.272 14.4946 145.271C14.3981 151.983 14.4406 157.737 14.4792 164.449C14.5014 168.321 14.5784 171.64 14.6683 175.511C14.6736 175.74 14.7038 176.065 14.7589 176.486L0.205342 151.279C0.149654 150.858 0.119869 150.534 0.115988 150.306C0.0508749 146.48 -0.0142168 143.201 0.00272113 139.375C0.031826 132.801 0.0693996 127.166 0.247531 120.594C0.406697 114.722 0.451693 109.678 0.966321 103.826C1.68562 95.6476 2.65989 88.6714 3.7705 80.5366C4.07757 78.2874 4.59411 76.4019 5.01501 74.1712C5.84845 69.7542 6.35878 65.9266 7.35428 61.5433C8.27414 57.4929 9.29487 54.076 10.4827 50.096C11.0866 48.0728 11.6736 46.3555 12.4706 44.4002C14.8578 38.5439 16.719 33.4288 19.5764 27.7869C22.0918 22.8203 24.8858 18.915 27.7853 14.1624C28.4589 13.0581 29.082 12.1402 29.7846 11.0541C30.7009 9.63766 31.4915 8.42693 32.4106 7.01229C33.1879 5.81592 33.8517 4.78881 34.6315 3.59409C34.9848 3.05272 35.2836 2.58587 35.6483 2.05205C36.1241 1.35547 36.5249 0.752673 37.0327 0.0790084C37.0673 0.0331507 37.129 0.0323953 37.1838 0.0149649C37.2056 0.00801653 37.2379 0.00302822 37.2807 9.1312e-15L37.2807 9.1312e-15C37.2807 -2.27187e-07 39.7283 4.23937 44.6235 12.7181Z" sodipodi:nodetypes="ccccccccccccccccccccccccccccccccccccccccc"/><path id="shape3" transform="matrix(0.769547325102882 0 0 0.906250000000003 177.275998170565 39.465218426037)" fill="#000000" d="M30.8099 12.7181C35.7051 21.1968 38.1527 25.4362 38.1527 25.4362C38.1569 25.4779 38.154 25.5081 38.1441 25.5268C37.9336 25.9222 37.7588 26.2658 37.5121 26.6397C35.7617 29.2919 34.2337 31.547 32.4398 34.1701C31.8169 35.0809 31.1507 35.7752 30.6077 36.7358C27.6797 41.9155 25.1929 46.3733 22.5331 51.6956C21.4537 53.8553 20.5949 55.7637 19.9373 58.0869C18.3547 63.6777 16.9825 68.4998 16.1486 74.2501C14.9995 82.1744 14.7002 89.0554 14.2869 97.0518C14.0482 101.67 13.9345 108.276 13.9459 116.869L0 92.7137C0.0132748 84.1599 0.144419 77.5846 0.393432 72.9877C0.825162 65.0177 1.17796 58.1653 2.29955 50.2629C3.1262 44.4385 4.39604 39.5302 5.94741 33.8557C6.58495 31.5237 7.47961 29.6264 8.53593 27.4518C11.1609 22.0481 13.6446 17.533 16.4555 12.2236C16.9977 11.1995 17.5158 10.3505 18.115 9.35867C19.7947 6.57811 21.336 4.25571 22.9665 1.44596C23.2159 1.01613 23.3132 0.590167 23.4757 0.120565C23.485 0.0939131 23.4821 0.0537248 23.4671 0L23.4671 0C23.4671 -2.27187e-07 25.9147 4.23937 30.8099 12.7181Z" sodipodi:nodetypes="ccccccccccccccccccccccc"/><path id="shape4" transform="matrix(0.769547325102882 0 0 0.906250000000003 168.614657271867 96.826615372703)" fill="#000000" d="M0.114218 10.0967C0.0879759 10.0819 0.0701248 10.0683 0.0606652 10.0557C0.0384126 10.0261 0.0211007 9.99751 0.0125387 9.9615C0.00330618 9.92266 -0.0096392 9.88152 0.0111625 9.84746C0.0845906 9.7272 0.161398 9.62879 0.27029 9.53937C0.899968 9.02229 1.45995 8.60391 2.11521 8.11967C2.48597 7.84569 2.81283 7.62274 3.2008 7.37372C3.60716 7.1129 3.94009 6.85447 4.38366 6.66368C6.24728 5.8621 7.82807 5.1021 9.77862 4.54448C13.2901 3.54062 16.3292 2.69298 19.9497 2.21367C27.928 1.15749 34.8312 0.822354 42.8522 0.166089C44.2895 0.0484947 45.5272 -0.0149165 46.9692 0.00299653C52.6704 0.0738214 57.5653 0.0416628 63.2544 0.41954C65.7368 0.58442 67.8409 1.02242 70.272 1.55078C74.7285 2.51933 78.5 3.56011 82.9177 4.693C84.9738 5.22027 86.7455 5.64724 88.7672 6.29382C92.2824 7.41801 95.274 8.45293 98.7292 9.74971C99.4653 10.026 100.483 10.5021 101.781 11.1781L116.246 36.2316C114.919 35.5092 113.879 34.9947 113.127 34.688C109.584 33.2426 106.514 32.0831 102.911 30.792C100.822 30.0432 99.0126 29.4457 96.8716 28.8618C92.4643 27.66 88.6765 26.652 84.2102 25.6925C81.7985 25.1744 79.7036 24.7835 77.2408 24.6446C71.5811 24.3254 66.7153 24.4099 61.0468 24.3861C59.6066 24.3801 58.3713 24.4449 56.9357 24.5594C48.9026 25.2002 41.9745 25.4046 33.9969 26.544C30.4233 27.0544 27.4584 28.0786 24.0463 29.2569C22.1452 29.9134 20.6687 30.8531 18.8762 31.7655C18.4458 31.9846 18.1006 32.2173 17.7 32.4871C17.3163 32.7455 16.9905 32.9741 16.6375 33.2731C16.0065 33.8074 15.4741 34.2777 14.892 34.8649C14.7833 34.9745 14.7389 35.1086 14.6775 35.2502C14.6621 35.2858 14.6669 35.3234 14.6769 35.3608C14.6888 35.4055 14.7113 35.4402 14.7382 35.4779C14.7494 35.4935 14.7699 35.5119 14.7998 35.5329L14.7998 35.5329Z" sodipodi:nodetypes="cccccccccccccccccccccccccccccccccccccc"/><path id="shape5" transform="matrix(0.769547325102882 0 0 0.906250000000003 206.502166121562 37.681718426037)" fill="#000000" d="M44.6235 12.7181C49.5187 21.1968 51.9663 25.4362 51.9663 25.4362C51.917 25.4246 51.8789 25.4196 51.8521 25.4212C51.7918 25.4249 51.7251 25.4104 51.6825 25.4532C51.1162 26.0213 50.6579 26.5355 50.1349 27.1437C49.7296 27.6151 49.4056 28.0392 49.0317 28.5359C48.1968 29.6449 47.4851 30.5987 46.6819 31.7309C45.7185 33.0889 44.9307 34.2795 43.985 35.6499C43.2626 36.6966 42.5841 37.5549 41.9157 38.6369C38.9883 43.3754 36.3128 47.3481 33.7144 52.2746C30.829 57.7452 28.7327 62.6277 26.2697 68.301C25.4287 70.2383 24.8897 71.9759 24.283 73.9989C23.0923 77.9688 22.0719 81.3773 21.1367 85.4151C20.1296 89.7634 19.5787 93.5566 18.7379 97.9401C18.3088 100.177 17.7882 102.071 17.5084 104.331C16.4796 112.646 15.6166 119.781 15.0016 128.136C14.5611 134.12 14.5809 139.272 14.4946 145.271C14.3981 151.983 14.4406 157.737 14.4792 164.449C14.5014 168.321 14.5784 171.64 14.6683 175.511C14.6736 175.74 14.7038 176.065 14.7589 176.486L0.205342 151.279C0.149654 150.858 0.119869 150.534 0.115988 150.306C0.0508749 146.48 -0.0142168 143.201 0.00272113 139.375C0.031826 132.801 0.0693996 127.166 0.247531 120.594C0.406697 114.722 0.451693 109.678 0.966321 103.826C1.68562 95.6476 2.65989 88.6714 3.7705 80.5366C4.07757 78.2874 4.59411 76.4019 5.01501 74.1712C5.84845 69.7542 6.35878 65.9266 7.35428 61.5433C8.27414 57.4929 9.29487 54.076 10.4827 50.096C11.0866 48.0728 11.6736 46.3555 12.4706 44.4002C14.8578 38.5439 16.719 33.4288 19.5764 27.7869C22.0918 22.8203 24.8858 18.915 27.7853 14.1624C28.4589 13.0581 29.082 12.1402 29.7846 11.0541C30.7009 9.63766 31.4915 8.42693 32.4106 7.01229C33.1879 5.81592 33.8517 4.78881 34.6315 3.59409C34.9848 3.05272 35.2836 2.58587 35.6483 2.05205C36.1241 1.35547 36.5249 0.752673 37.0327 0.0790084C37.0673 0.0331507 37.129 0.0323953 37.1838 0.0149649C37.2056 0.00801653 37.2379 0.00302822 37.2807 9.1312e-15L37.2807 9.1312e-15C37.2807 -2.27187e-07 39.7283 4.23937 44.6235 12.7181Z" sodipodi:nodetypes="ccccccccccccccccccccccccccccccccccccccccc"/><path id="shape6" transform="matrix(0.76411290322581 0 0 0.752151462994839 85.3163315262266 58.8014287717354)" fill="#000000" d="M111.4 12.7181C116.295 21.1968 118.743 25.4362 118.743 25.4362C118.67 25.4207 118.613 25.4115 118.573 25.4088C116.42 25.2612 114.577 25.0713 112.419 25.0028C106.92 24.8282 102.203 24.6203 96.7024 24.7144C89.842 24.8317 83.9257 24.7436 77.1187 25.6062C68.9363 26.6431 61.9426 27.9358 53.9911 30.1268C47.8981 31.8058 42.8727 33.9561 37.1423 36.6218C34.0058 38.0809 31.4636 39.7014 28.7629 41.863C26.3168 43.8209 24.4425 45.8102 22.5464 48.3045C20.5103 50.9831 19.1985 53.587 17.6002 56.5478C17.0428 57.5804 16.6381 58.5302 16.4054 59.6804C15.5216 64.049 14.9604 67.8351 14.4217 72.2596C14.1322 74.6366 13.946 76.6981 14.0419 79.0908C14.2123 83.3466 14.4158 87.0167 15.1806 91.2067C15.9598 95.4757 17.1961 99.0118 18.4368 103.17C18.8437 104.534 19.2701 105.687 19.8837 106.971C21.1374 109.595 23.0279 113.294 25.5553 118.069L11.3558 93.4752C13.5382 96.8712 15.2463 99.4638 16.4801 101.253C16.9043 101.868 17.3703 102.317 17.8493 102.891C18.3234 103.458 18.7198 103.953 19.2033 104.512C19.6702 105.052 20.0397 105.548 20.5645 106.032C22.2137 107.553 23.6209 108.875 25.4057 110.235C26.3624 110.964 27.2765 111.472 28.3677 111.978C29.8535 112.667 31.1489 113.261 32.7429 113.637C34.9991 114.169 36.9873 114.429 39.3019 114.556C42.5862 114.737 45.4138 114.662 48.6997 114.514C49.8996 114.46 50.9201 114.254 52.0893 113.979C57.2073 112.778 61.6606 111.95 66.6521 110.3C69.8018 109.259 72.3977 108.007 75.2548 106.321C78.2317 104.565 80.6672 102.819 83.241 100.511C85.2626 98.6987 86.6955 96.8202 88.2975 94.6281C89.4635 93.0325 90.2488 91.5112 91.116 89.7353C91.703 88.5331 92.1464 87.4545 92.4381 86.1488C93.2973 82.3041 94.0823 78.9915 94.3943 75.0643C94.7075 71.1214 94.5401 67.7068 94.2165 63.7647C93.9986 61.1108 93.7128 58.7999 92.8521 56.2801C91.3934 52.0089 89.5928 48.5537 87.6328 44.4881C86.9256 43.0211 85.7912 40.9898 84.2296 38.3943L98.2432 62.6665C94.915 57.5256 92.2882 53.6175 90.3626 50.9421C89.5692 49.8398 88.7583 48.9814 87.7436 48.0785C86.8522 47.2853 85.9441 46.7844 84.9493 46.1255C84.8364 46.0508 84.6611 45.9688 84.4234 45.8797L69.8997 20.7239C70.1417 20.8193 70.3199 20.9063 70.4343 20.9849C71.4544 21.6855 72.3882 22.2198 73.2982 23.0583C74.3685 24.0445 75.2144 24.9827 76.0591 26.1678C78.0507 28.9619 80.7742 33.0374 84.2296 38.3943L98.2432 62.6665C99.8008 65.2583 100.933 67.2861 101.64 68.7501C103.639 72.8878 105.486 76.3993 106.977 80.7456C107.834 83.2404 108.106 85.5338 108.303 88.1639C108.595 92.0401 108.671 95.3943 108.369 99.2697C108.058 103.275 107.38 106.672 106.558 110.605C106.283 111.919 105.832 113.001 105.246 114.209C104.382 115.987 103.603 117.514 102.428 119.104C100.82 121.28 99.3488 123.114 97.3332 124.92C94.7567 127.228 92.3598 129.03 89.3827 130.792C86.5264 132.482 83.9035 133.676 80.7562 134.729C75.7836 136.394 71.3589 137.289 66.264 138.531C65.0995 138.814 64.0803 139.004 62.8843 139.082C59.6479 139.295 56.8635 139.458 53.6216 139.359C51.344 139.289 49.3813 139.088 47.1554 138.6C45.5701 138.253 44.2826 137.666 42.8076 136.989C41.7144 136.487 40.7997 135.979 39.8457 135.246C38.0414 133.861 36.6242 132.511 34.9581 130.962C34.432 130.473 34.0596 129.976 33.5907 129.432C33.103 128.866 32.7038 128.365 32.2255 127.791C31.7451 127.214 31.2762 126.764 30.8517 126.145C29.5768 124.287 27.8113 121.595 25.5553 118.069L11.3558 93.4752C8.87366 88.7772 7.01743 85.1371 5.78713 82.5549C5.17774 81.2759 4.75494 80.1285 4.34975 78.7709C3.10595 74.6036 1.853 71.063 1.07981 66.7834C0.331451 62.6412 0.17056 59.0103 0.0196722 54.8037C-0.0660419 52.4141 0.140386 50.3591 0.405445 47.9827C0.909986 43.4592 1.37869 39.5787 2.21681 35.105C2.4333 33.9494 2.82938 32.9879 3.4065 31.9636C5.03517 29.0729 6.43106 26.5633 8.49365 23.9643C10.4337 21.5199 12.3015 19.5385 14.7763 17.6374C17.5179 15.5312 20.1272 14.0314 23.2775 12.6073C29.0395 10.0026 34.0695 7.87745 40.1563 6.16426C48.064 3.93857 54.9876 2.42744 63.1367 1.38864C69.985 0.515646 75.9491 0.909641 82.8503 0.721822C88.2336 0.575314 92.8517 0.610833 98.234 0.433443C100.228 0.367732 101.93 0.175519 103.919 0.0274357C103.952 0.0250027 103.998 0.0158575 104.057 9.1312e-15L104.057 9.1312e-15C104.057 -2.27187e-07 106.505 4.23937 111.4 12.7181Z" sodipodi:nodetypes="ccccccccccccccccccccccccccccccccccccccccccccccccccccccccccccccccccccccccccccccccccccccccccc"/>
</svg>
